# xmcd
# 
# Track frame offsets:
#     150
#     16549
#     36374
#     55168
#     72591
#     82031
#     101291
#     117337
#     134971
#     157871
#     164820
# 
# Disc length: 2442
# 
# Revision: 0
# Processed by: cddbd v1.5.2PL0 Copyright (c) Steve Scherf et al.
# Submitted via: fre:ac v1.0.27
# 
DISCID=9509880b
DTITLE=佐藤博 - SAILING BLASTER
DYEAR=1984
DGENRE=JPop
TTITLE0=SWEET INSPIRATION
TTITLE1=EIGHT DAYS A WEEK
TTITLE2=ALWAYS
TTITLE3=LOVE IS HAPPENING
TTITLE4=BLUSE BLASTER
TTITLE5=JENNY LOU
TTITLE6=SHINE FOREVER
TTITLE7=I FEEL FINE
TTITLE8=HOW YA VEEN (DO NAI?)
TTITLE9=SAILING BLASTER
TTITLE10=SWEET INSPILATION '85
EXTD=
EXTT0=
EXTT1=
EXTT2=
EXTT3=
EXTT4=
EXTT5=
EXTT6=
EXTT7=
EXTT8=
EXTT9=
EXTT10=
PLAYORDER=
